<svg width="24" height="24" viewBox="0 0 24 24" fill="none" xmlns="http://www.w3.org/2000/svg">
<g id="Icon/Outline/cloud-download">
<path id="Mask" fill-rule="evenodd" clip-rule="evenodd" d="M12 3C14.581 3 16.855 4.661 17.675 7.045C20.114 7.376 22 9.472 22 12C22 13.221 21.556 14.396 20.75 15.309C20.552 15.532 20.277 15.647 20 15.647C19.765 15.647 19.529 15.565 19.338 15.397C18.925 15.03 18.885 14.399 19.251 13.984C19.734 13.438 20 12.732 20 12C20 10.346 18.654 9 17 9H16.9C16.424 9 16.014 8.664 15.92 8.197C15.546 6.345 13.898 5 12 5C10.103 5 8.454 6.345 8.081 8.197C7.987 8.664 7.576 9 7.1 9H7C5.346 9 4 10.346 4 12C4 12.732 4.266 13.438 4.75 13.984C5.115 14.399 5.076 15.03 4.662 15.397C4.247 15.763 3.616 15.722 3.251 15.309C2.444 14.396 2 13.221 2 12C2 9.472 3.886 7.376 6.325 7.045C7.146 4.661 9.42 3 12 3ZM13.0004 17.6439L14.3054 16.3839C14.7034 16.0009 15.3364 16.0119 15.7194 16.4089C16.1034 16.8069 16.0924 17.4399 15.6954 17.8229L12.6954 20.7199C12.5004 20.9059 12.2504 20.9999 12.0004 20.9999C11.7444 20.9999 11.4884 20.9029 11.2934 20.7069L8.2934 17.7069C7.9024 17.3169 7.9024 16.6839 8.2934 16.2929C8.6834 15.9029 9.3164 15.9029 9.7074 16.2929L11.0004 17.5859V11.9999C11.0004 11.4469 11.4484 10.9999 12.0004 10.9999C12.5524 10.9999 13.0004 11.4469 13.0004 11.9999V17.6439Z" fill="#5A55D2"/>
</g>
</svg>
