<svg width="16" height="16" viewBox="0 0 16 16" fill="none" xmlns="http://www.w3.org/2000/svg">
<g id="Icon/Outline/edit">
<path id="Mask" fill-rule="evenodd" clip-rule="evenodd" d="M10.6791 7.1192L8.88244 5.32253L10.1811 4.0232L11.9771 5.8192L10.6791 7.1192ZM6.0531 11.7499L4.06843 11.9305L4.24443 9.95986L7.9891 6.2152L9.78644 8.01253L6.0531 11.7499ZM12.9358 4.89186L12.9351 4.8912L11.1098 3.06586C10.6158 2.5732 9.7671 2.54986 9.2991 3.01986L3.30177 9.0172C3.08443 9.23386 2.94977 9.52186 2.92177 9.82653L2.6691 12.6065C2.65177 12.8032 2.72177 12.9979 2.86177 13.1379C2.98777 13.2639 3.15777 13.3332 3.3331 13.3332C3.35377 13.3332 3.37377 13.3325 3.39377 13.3305L6.17377 13.0779C6.4791 13.0499 6.76644 12.9159 6.9831 12.6992L12.9811 6.7012C13.4664 6.21453 13.4458 5.40253 12.9358 4.89186Z" fill="white"/>
</g>
</svg>
